<svg width="20" height="21" viewBox="0 0 20 21" fill="none" xmlns="http://www.w3.org/2000/svg">
<path d="M2.10794 12.8078C1.93073 13.9695 2.72301 14.7758 3.69305 15.1777C7.41202 16.7183 12.5873 16.7183 16.3063 15.1777C17.2763 14.7758 18.0686 13.9695 17.8914 12.8078C17.7825 12.0939 17.244 11.4994 16.845 10.9189C16.3224 10.1493 16.2705 9.30967 16.2704 8.4165C16.2704 4.96472 13.4629 2.1665 9.99968 2.1665C6.53645 2.1665 3.72895 4.96472 3.72895 8.4165C3.72887 9.30967 3.67694 10.1493 3.15435 10.9189C2.75538 11.4994 2.21685 12.0939 2.10794 12.8078Z" stroke="white" stroke-linecap="round" stroke-linejoin="round"/>
<path d="M6.66699 16.3335C7.04907 17.7712 8.39658 18.8335 10.0003 18.8335C11.6041 18.8335 12.9516 17.7712 13.3337 16.3335" stroke="white" stroke-linecap="round" stroke-linejoin="round"/>
</svg>
