<svg width="16" height="17" viewBox="0 0 16 17" fill="none" xmlns="http://www.w3.org/2000/svg">
<path fill-rule="evenodd" clip-rule="evenodd" d="M13.2559 3.24408C13.5814 3.56952 13.5814 4.09715 13.2559 4.42259L3.92259 13.7559C3.59715 14.0813 3.06952 14.0813 2.74408 13.7559C2.41864 13.4305 2.41864 12.9029 2.74408 12.5774L12.0774 3.24408C12.4029 2.91864 12.9305 2.91864 13.2559 3.24408Z" fill="#FF1A43"/>
<path fill-rule="evenodd" clip-rule="evenodd" d="M2.74408 3.24408C3.06952 2.91864 3.59715 2.91864 3.92259 3.24408L13.2559 12.5774C13.5814 12.9029 13.5814 13.4305 13.2559 13.7559C12.9305 14.0813 12.4029 14.0813 12.0774 13.7559L2.74408 4.42259C2.41864 4.09715 2.41864 3.56952 2.74408 3.24408Z" fill="#FF1A43"/>
</svg>
