<svg width="20" height="21" viewBox="0 0 20 21" fill="none" xmlns="http://www.w3.org/2000/svg">
<path d="M17.9534 9.70425C18.2067 10.0595 18.3334 10.2372 18.3334 10.5001C18.3334 10.763 18.2067 10.9407 17.9534 11.2959C16.8149 12.8922 13.9077 16.3334 10 16.3334C6.09234 16.3334 3.1851 12.8922 2.04672 11.2959C1.79336 10.9407 1.66669 10.763 1.66669 10.5001C1.66669 10.2372 1.79336 10.0595 2.04672 9.70425C3.1851 8.10795 6.09234 4.66675 10 4.66675C13.9077 4.66675 16.8149 8.10795 17.9534 9.70425Z" stroke="#868686" stroke-width="1.5"/>
<path d="M12.5 10.5C12.5 9.11925 11.3807 8 10 8C8.61925 8 7.5 9.11925 7.5 10.5C7.5 11.8807 8.61925 13 10 13C11.3807 13 12.5 11.8807 12.5 10.5Z" stroke="#868686" stroke-width="1.5"/>
</svg>
