<svg width="16" height="17" viewBox="0 0 16 17" fill="none" xmlns="http://www.w3.org/2000/svg">
<path d="M1.33325 5.82397C1.40628 4.35048 1.62474 3.43179 2.27827 2.77827C2.93179 2.12474 3.85048 1.90628 5.32397 1.83325M14.6666 5.82397C14.5936 4.35048 14.3751 3.43179 13.7216 2.77827C13.0681 2.12474 12.1494 1.90628 10.6759 1.83325M10.6759 15.1666C12.1494 15.0936 13.0681 14.8751 13.7216 14.2216C14.3751 13.5681 14.5936 12.6494 14.6666 11.1759M5.32397 15.1666C3.85048 15.0936 2.93179 14.8751 2.27827 14.2216C1.62474 13.5681 1.40628 12.6494 1.33325 11.1759" stroke="white" stroke-linecap="round" stroke-linejoin="round"/>
<path d="M11.0098 6.4616C11.2212 6.84526 11.3334 7.26773 11.3334 7.6994V9.6204C11.3334 10.3767 10.9761 11.1218 10.3571 11.6566C9.73801 12.1914 8.87555 12.5 8.00008 12.5M4.66675 8.01887V9.6206C4.66641 10.4595 5.10256 11.2846 5.86741 11.8347M9.66675 4.88579C8.90115 4.50395 7.99135 4.40047 7.13741 4.59812C6.28353 4.79577 5.55547 5.27835 5.11343 5.93972M9.11108 8.15213V7.5608C9.11775 7.13643 8.75561 6.75442 8.26348 6.65385M6.88908 8.40447V9.42033C6.88548 9.6074 6.95108 9.79087 7.07715 9.94627C7.47048 10.4313 8.35061 10.4868 8.82675 10.0484" stroke="white" stroke-linecap="round" stroke-linejoin="round"/>
</svg>
