<svg width="25" height="24" viewBox="0 0 25 24" fill="none" xmlns="http://www.w3.org/2000/svg">
<path d="M16 15L14.5 10.5C12.8432 10.4999 12.5 11.843 12.5 13.4999V15" stroke="white" stroke-width="1.5" stroke-linecap="round" stroke-linejoin="round"/>
<path d="M9 15L10.5 10.5C12.1568 10.4999 12.5 11.843 12.5 13.4999V15" stroke="white" stroke-width="1.5" stroke-linecap="round" stroke-linejoin="round"/>
<path d="M22.4779 21.9999C21.3283 21.3294 19.3918 19.8143 16.7887 20.008C16.1292 20.057 15.7991 20.0816 15.4976 20.0584C15.196 20.0352 15.1875 20.0333 15.1706 20.0293C13.639 19.6745 12.5 18.3357 12.5 16.7382V3.19665C12.5 2.53578 13.0357 2.00003 13.6966 2C14.1825 1.99997 14.6202 2.29381 14.8042 2.74356L17.5224 9.38799C18.588 11.993 19.1209 13.2954 20.0497 13.9653C20.1069 14.0065 20.2128 14.0777 20.2726 14.1149C21.2443 14.721 21.6628 14.721 22.5 14.721" stroke="white" stroke-width="1.5" stroke-linecap="round" stroke-linejoin="round"/>
<path d="M2.52208 22C3.67173 21.3295 5.6082 19.8144 8.21127 20.008C8.87081 20.057 9.20094 20.0816 9.50245 20.0584C9.804 20.0353 9.81246 20.0333 9.82938 20.0294C11.361 19.6746 12.5 18.3357 12.5 16.7382V3.19664C12.5 2.53575 11.9642 2 11.3034 2C10.8175 2 10.3798 2.29382 10.1958 2.74355L7.47762 9.38804C6.41195 11.993 5.87912 13.2955 4.95028 13.9654C4.89315 14.0066 4.78717 14.0777 4.72741 14.115C3.75573 14.721 3.33715 14.721 2.5 14.721" stroke="white" stroke-width="1.5" stroke-linecap="round" stroke-linejoin="round"/>
</svg>
