<svg width="24" height="25" viewBox="0 0 24 25" fill="none" xmlns="http://www.w3.org/2000/svg">
<path d="M6 18.4745C6.1287 19.7829 6.41956 20.6636 7.07691 21.3209C8.25596 22.5 10.1536 22.5 13.9489 22.5C17.7442 22.5 19.6419 22.5 20.8209 21.3209C22 20.1419 22 18.2442 22 14.4489C22 10.6536 22 8.75596 20.8209 7.57691C20.1636 6.91956 19.2829 6.6287 17.9745 6.5" stroke="white" stroke-width="1.5"/>
<path d="M2 10.5C2 6.72876 2 4.84315 3.17157 3.67157C4.34315 2.5 6.22876 2.5 10 2.5C13.7712 2.5 15.6569 2.5 16.8284 3.67157C18 4.84315 18 6.72876 18 10.5C18 14.2712 18 16.1569 16.8284 17.3284C15.6569 18.5 13.7712 18.5 10 18.5C6.22876 18.5 4.34315 18.5 3.17157 17.3284C2 16.1569 2 14.2712 2 10.5Z" stroke="white" stroke-width="1.5"/>
<path d="M5 18.5C8.42061 13.7487 12.2647 7.44746 18 12.1734" stroke="white" stroke-width="1.5"/>
</svg>
