<svg width="20" height="21" viewBox="0 0 20 21" fill="none" xmlns="http://www.w3.org/2000/svg">
<path d="M12.0759 13.4167H12.0834M7.91669 13.4167H7.92416" stroke="white" stroke-width="1.5" stroke-linecap="round" stroke-linejoin="round"/>
<path d="M3.55649 16.2039C3.74389 17.5958 4.89675 18.6862 6.2997 18.7507C7.4802 18.805 8.6794 18.8333 9.99998 18.8333C11.3206 18.8333 12.5197 18.805 13.7002 18.7507C15.1032 18.6862 16.2561 17.5958 16.4435 16.2039C16.5658 15.2956 16.6666 14.3647 16.6666 13.4167C16.6666 12.4687 16.5658 11.5378 16.4435 10.6294C16.2561 9.2375 15.1032 8.14707 13.7002 8.08257C12.5197 8.02831 11.3206 8 9.99998 8C8.6794 8 7.4802 8.02831 6.2997 8.08257C4.89675 8.14707 3.74389 9.2375 3.55649 10.6294C3.43419 11.5378 3.33331 12.4687 3.33331 13.4167C3.33331 14.3647 3.43419 15.2956 3.55649 16.2039Z" stroke="white"/>
<path d="M6.25 8.00008V5.91675C6.25 3.84568 7.92893 2.16675 10 2.16675C12.0711 2.16675 13.75 3.84568 13.75 5.91675V8.00008" stroke="white" stroke-linecap="round" stroke-linejoin="round"/>
</svg>
