<svg width="20" height="21" viewBox="0 0 20 21" fill="none" xmlns="http://www.w3.org/2000/svg">
<path d="M10 14.2499V12.5833" stroke="white" stroke-linecap="round"/>
<path d="M3.55655 16.2039C3.74395 17.5958 4.89682 18.6862 6.29976 18.7507C7.48027 18.805 8.67946 18.8333 10 18.8333C11.3206 18.8333 12.5198 18.805 13.7003 18.7507C15.1033 18.6862 16.2561 17.5958 16.4435 16.2039C16.5659 15.2956 16.6667 14.3647 16.6667 13.4167C16.6667 12.4687 16.5659 11.5378 16.4435 10.6294C16.2561 9.2375 15.1033 8.14707 13.7003 8.08257C12.5198 8.02831 11.3206 8 10 8C8.67946 8 7.48027 8.02831 6.29976 8.08257C4.89682 8.14707 3.74395 9.2375 3.55655 10.6294C3.43424 11.5378 3.33337 12.4687 3.33337 13.4167C3.33337 14.3647 3.43424 15.2956 3.55655 16.2039Z" stroke="white"/>
<path d="M6.25 8.00008V5.91675C6.25 3.84568 7.92893 2.16675 10 2.16675C12.0711 2.16675 13.75 3.84568 13.75 5.91675V8.00008" stroke="white" stroke-linecap="round" stroke-linejoin="round"/>
</svg>
