<svg width="25" height="24" viewBox="0 0 25 24" fill="none" xmlns="http://www.w3.org/2000/svg">
<path d="M14 15L15.5 10.5C17.1568 10.4999 17.5 11.843 17.5 13.4999V15" stroke="white" stroke-width="1.5" stroke-linecap="round" stroke-linejoin="round"/>
<path d="M7.52208 22C8.67173 21.3295 10.6082 19.8144 13.2113 20.008C13.8708 20.057 14.2009 20.0816 14.5024 20.0584C14.804 20.0353 14.8125 20.0333 14.8294 20.0294C16.361 19.6746 17.5 18.3357 17.5 16.7382V3.19664C17.5 2.53575 16.9642 2 16.3034 2C15.8175 2 15.3798 2.29382 15.1958 2.74355L12.4776 9.38804C11.412 11.993 10.8791 13.2955 9.95028 13.9654C9.89315 14.0066 9.78717 14.0777 9.72741 14.115C8.75573 14.721 8.33715 14.721 7.5 14.721" stroke="white" stroke-width="1.5" stroke-linecap="round" stroke-linejoin="round"/>
</svg>
