<svg width="20" height="21" viewBox="0 0 20 21" fill="none" xmlns="http://www.w3.org/2000/svg">
<path d="M5.83337 7.58325L8.28506 9.03275C9.71437 9.87784 10.2857 9.87784 11.715 9.03275L14.1667 7.58325" stroke="white" stroke-linecap="round" stroke-linejoin="round"/>
<path d="M1.67976 11.7298C1.73425 14.2844 1.76148 15.5617 2.70409 16.5079C3.6467 17.4541 4.95857 17.487 7.58232 17.5529C9.19938 17.5936 10.8005 17.5936 12.4176 17.5529C15.0414 17.487 16.3532 17.4541 17.2958 16.5079C18.2385 15.5617 18.2657 14.2844 18.3201 11.7298C18.3377 10.9084 18.3377 10.0918 18.3201 9.27044C18.2657 6.7158 18.2385 5.43849 17.2958 4.4923C16.3532 3.54611 15.0414 3.51315 12.4176 3.44722C10.8005 3.40659 9.19938 3.40659 7.58231 3.44722C4.95857 3.51313 3.6467 3.54609 2.70409 4.49229C1.76148 5.43848 1.73424 6.71579 1.67976 9.27036C1.66225 10.0918 1.66225 10.9084 1.67976 11.7298Z" stroke="white" stroke-linejoin="round"/>
</svg>
