<svg width="25" height="24" viewBox="0 0 25 24" fill="none" xmlns="http://www.w3.org/2000/svg">
<path d="M11 15L9.5 10.5C7.8432 10.4999 7.5 11.843 7.5 13.4999V15" stroke="white" stroke-width="1.5" stroke-linecap="round" stroke-linejoin="round"/>
<path d="M17.4779 21.9999C16.3283 21.3294 14.3918 19.8143 11.7887 20.008C11.1292 20.057 10.7991 20.0816 10.4976 20.0584C10.196 20.0352 10.1875 20.0333 10.1706 20.0293C8.639 19.6745 7.5 18.3357 7.5 16.7382V3.19665C7.5 2.53578 8.0357 2.00003 8.6966 2C9.1825 1.99997 9.6202 2.29381 9.8042 2.74356L12.5224 9.38799C13.588 11.993 14.1209 13.2954 15.0497 13.9653C15.1069 14.0065 15.2128 14.0777 15.2726 14.1149C16.2443 14.721 16.6628 14.721 17.5 14.721" stroke="white" stroke-width="1.5" stroke-linecap="round" stroke-linejoin="round"/>
</svg>
