<svg width="15" height="18" viewBox="0 0 15 18" fill="none" xmlns="http://www.w3.org/2000/svg">
<path d="M12.8138 9.62359L13.408 9.7063L12.8138 9.62359ZM12.6039 11.1316L12.0096 11.0489L12.6039 11.1316ZM2.59611 11.1316L3.19038 11.0489L2.59611 11.1316ZM2.38624 9.6236L1.79197 9.7063L2.38624 9.6236ZM5.34691 16.7895L5.11364 17.3423H5.11364L5.34691 16.7895ZM3.18006 14.2483L3.74325 14.0413L3.18006 14.2483ZM12.0199 14.2483L12.5831 14.4552L12.0199 14.2483ZM9.85308 16.7895L9.61981 16.2367L9.85308 16.7895ZM2.59731 6.54325C2.56596 6.21336 2.27313 5.97135 1.94324 6.00269C1.61336 6.03403 1.37134 6.32687 1.40269 6.65675L2.59731 6.54325ZM13.7973 6.65675C13.8287 6.32687 13.5866 6.03403 13.2568 6.00269C12.9269 5.97135 12.634 6.21336 12.6027 6.54325L13.7973 6.65675ZM14 5.6C14.3314 5.6 14.6 5.33137 14.6 5C14.6 4.66863 14.3314 4.4 14 4.4V5.6ZM1.2 4.4C0.868626 4.4 0.599997 4.66863 0.599997 5C0.599997 5.33137 0.868626 5.6 1.2 5.6V4.4ZM5.4 13.8C5.4 14.1314 5.66863 14.4 6 14.4C6.33137 14.4 6.6 14.1314 6.6 13.8H5.4ZM6.6 7.4C6.6 7.06863 6.33137 6.8 6 6.8C5.66863 6.8 5.4 7.06863 5.4 7.4H6.6ZM8.6 13.8C8.6 14.1314 8.86863 14.4 9.2 14.4C9.53137 14.4 9.8 14.1314 9.8 13.8H8.6ZM9.8 7.4C9.8 7.06863 9.53137 6.8 9.2 6.8C8.86863 6.8 8.6 7.06863 8.6 7.4H9.8ZM10.8 5V5.6H11.4V5H10.8ZM4.4 5H3.8V5.6H4.4V5ZM12.2195 9.54089L12.0096 11.0489L13.1982 11.2143L13.408 9.7063L12.2195 9.54089ZM3.19038 11.0489L2.98051 9.5409L1.79197 9.7063L2.00183 11.2143L3.19038 11.0489ZM7.6 16.4C6.37666 16.4 5.94035 16.3887 5.58019 16.2367L5.11364 17.3423C5.75131 17.6113 6.48446 17.6 7.6 17.6V16.4ZM2.00183 11.2143C2.2256 12.8222 2.34725 13.7213 2.61687 14.4552L3.74325 14.0413C3.52924 13.4589 3.4228 12.719 3.19038 11.0489L2.00183 11.2143ZM5.58019 16.2367C4.84223 15.9253 4.15597 15.1646 3.74325 14.0413L2.61687 14.4552C3.10856 15.7934 3.98564 16.8663 5.11364 17.3423L5.58019 16.2367ZM12.0096 11.0489C11.7772 12.719 11.6707 13.4589 11.4567 14.0413L12.5831 14.4552C12.8527 13.7213 12.9744 12.8222 13.1982 11.2143L12.0096 11.0489ZM7.6 17.6C8.71553 17.6 9.44868 17.6113 10.0864 17.3423L9.61981 16.2367C9.25965 16.3887 8.82333 16.4 7.6 16.4V17.6ZM11.4567 14.0413C11.044 15.1646 10.3578 15.9253 9.61981 16.2367L10.0864 17.3423C11.2144 16.8663 12.0914 15.7934 12.5831 14.4552L11.4567 14.0413ZM2.98051 9.5409C2.80281 8.26402 2.67012 7.30962 2.59731 6.54325L1.40269 6.65675C1.47855 7.45517 1.61569 8.43964 1.79197 9.7063L2.98051 9.5409ZM13.408 9.7063C13.5843 8.43964 13.7214 7.45517 13.7973 6.65675L12.6027 6.54325C12.5299 7.30962 12.3972 8.26402 12.2195 9.54089L13.408 9.7063ZM14 4.4H1.2V5.6H14V4.4ZM6.6 13.8V7.4H5.4V13.8H6.6ZM9.8 13.8V7.4H8.6V13.8H9.8ZM10.2 4.2V5H11.4V4.2H10.2ZM10.8 4.4H4.4V5.6H10.8V4.4ZM5 5V4.2H3.8V5H5ZM7.6 1.6C9.03594 1.6 10.2 2.76406 10.2 4.2H11.4C11.4 2.10132 9.69868 0.4 7.6 0.4V1.6ZM7.6 0.4C5.50132 0.4 3.8 2.10132 3.8 4.2H5C5 2.76406 6.16406 1.6 7.6 1.6V0.4Z" fill="#ED0000"/>
</svg>
