<svg width="24" height="25" viewBox="0 0 24 25" fill="none" xmlns="http://www.w3.org/2000/svg">
<path fill-rule="evenodd" clip-rule="evenodd" d="M5.27761 1.54388C6.68148 1.31325 8.03271 2.00081 8.9876 3.39147C9.69685 4.42439 9.81006 5.94031 9.67369 7.46752C9.53219 9.05215 9.09808 10.8882 8.46747 12.7583C8.19314 13.5719 7.87872 14.4003 7.53018 15.2258C7.72568 15.0011 7.93164 14.7128 8.19623 14.3424C8.26244 14.2497 8.33232 14.1519 8.40663 14.0486C8.77929 13.5308 9.22951 12.928 9.78328 12.3589C10.1461 11.9859 10.5883 11.7154 11.104 11.6429C11.6225 11.57 12.0881 11.7153 12.4613 11.9401C12.5797 12.0114 12.6923 12.0926 12.7992 12.1817C12.8692 12.0883 12.9416 11.9971 13.0164 11.9086C13.543 11.2853 14.2635 10.7059 15.1626 10.5348C16.1949 10.3384 16.9465 10.9273 17.4093 11.3891C17.637 11.6163 17.8547 11.8738 18.0445 12.0983C18.055 12.1108 18.0655 12.1232 18.0759 12.1355C18.2845 12.382 18.4679 12.5965 18.6574 12.7838C19.0395 13.1618 19.3203 13.3011 19.5933 13.3087C19.8801 13.3166 20.4272 13.1852 21.3402 12.3836C21.7552 12.0192 22.3871 12.0602 22.7515 12.4752C23.1159 12.8902 23.0748 13.5221 22.6598 13.8865C21.5728 14.8409 20.5484 15.3359 19.538 15.3079C18.5138 15.2796 17.7716 14.7208 17.251 14.2058C16.989 13.9467 16.751 13.666 16.549 13.4272L16.5421 13.419C16.3317 13.1703 16.1629 12.9708 15.9966 12.8049C15.6559 12.4649 15.5511 12.4953 15.5377 12.4992C15.5372 12.4994 15.5368 12.4995 15.5365 12.4996C15.2608 12.552 14.9128 12.7629 14.5442 13.1993C14.3576 13.4202 14.1849 13.6769 14.0329 13.9515C14.3222 14.6246 14.5136 15.3813 14.5233 16.0335C14.5284 16.3707 14.4873 16.7918 14.2867 17.1661C14.05 17.6077 13.6012 17.9451 13 17.9451C12.4872 17.9451 12.0446 17.7094 11.7603 17.3116C11.5121 16.9643 11.4298 16.5602 11.4064 16.2306C11.359 15.5623 11.5256 14.7757 11.7933 14.052C11.7959 14.045 11.7984 14.0381 11.801 14.0312C11.6633 13.8419 11.5326 13.7155 11.4294 13.6533C11.4042 13.6381 11.387 13.6305 11.3765 13.6267C11.3532 13.6373 11.2994 13.6686 11.2167 13.7536C10.7705 14.2122 10.3906 14.7157 10.0299 15.2169C9.97153 15.2981 9.9123 15.3812 9.85244 15.4651C9.56487 15.8686 9.26282 16.2923 8.96875 16.6179C8.6333 16.9892 8.08602 17.4948 7.31666 17.5034C7.04135 17.5064 6.78852 17.4462 6.55655 17.3427C5.46051 19.5385 4.14998 21.5994 2.74483 23.1679C2.37632 23.5793 1.74411 23.614 1.33275 23.2455C0.921395 22.877 0.886668 22.2448 1.25518 21.8334C2.63499 20.2932 3.95248 18.17 5.03575 15.8991C1.41325 11.1872 0.984755 6.89755 2.19973 4.18589C2.82228 2.79644 3.924 1.76626 5.27761 1.54388ZM5.96334 13.7757C3.27506 9.85235 3.26677 6.69571 4.0249 5.00367C4.45584 4.04186 5.08877 3.60172 5.60183 3.51743C6.06465 3.4414 6.71213 3.61084 7.33885 4.52357C7.63063 4.9485 7.81003 5.85152 7.68162 7.28964C7.55833 8.67033 7.17025 10.346 6.57231 12.1193C6.38719 12.6683 6.18342 13.2224 5.96334 13.7757Z" fill="white"/>
<path fill-rule="evenodd" clip-rule="evenodd" d="M8 21.5C8 20.9477 8.44772 20.5 9 20.5H19C19.5523 20.5 20 20.9477 20 21.5C20 22.0523 19.5523 22.5 19 22.5H9C8.44772 22.5 8 22.0523 8 21.5Z" fill="white"/>
</svg>
